<svg xmlns="http://www.w3.org/2000/svg" version="1.1" xmlns:xlink="http://www.w3.org/1999/xlink" xmlns:svgjs="http://svgjs.dev/svgjs" width="1500" height="1500" viewBox="0 0 1500 1500"><rect width="1500" height="1500" fill="#000000"></rect><g transform="matrix(0.6666666666666666,0,0,0.6666666666666666,249.39393939393938,665.2313452679622)"><svg viewBox="0 0 396 67" data-background-color="#000000" preserveAspectRatio="xMidYMid meet" height="253" width="1500" xmlns="http://www.w3.org/2000/svg" xmlns:xlink="http://www.w3.org/1999/xlink"><g id="tight-bounds" transform="matrix(1,0,0,1,0.2400000000000091,0.17292411292410748)"><svg viewBox="0 0 395.52 66.65415177415177" height="66.65415177415177" width="395.52"><g><svg viewBox="0 0 395.52 66.65415177415177" height="66.65415177415177" width="395.52"><g><svg viewBox="0 0 395.52 66.65415177415177" height="66.65415177415177" width="395.52"><g id="textblocktransform"><svg viewBox="0 0 395.52 66.65415177415177" height="66.65415177415177" width="395.52" id="textblock"><g><svg viewBox="0 0 395.52 66.65415177415177" height="66.65415177415177" width="395.52"><g transform="matrix(1,0,0,1,0,0)"><svg width="395.52" viewBox="2.51 -37.5 282.77 47.660000000000004" height="66.65415177415177" data-palette-color="url(#0ee593e9-61d3-49a0-8fa1-b9b5c3ec7328)"></svg></g></svg></g></svg></g></svg></g><g></g></svg></g><defs></defs><mask id="3958b307-07f6-4f5e-82cb-4a2155dffcca"><g id="SvgjsG1666"><svg viewBox="0 0 395.52 66.65415177415177" height="66.65415177415177" width="395.52"><g><svg viewBox="0 0 395.52 66.65415177415177" height="66.65415177415177" width="395.52"><g><svg viewBox="0 0 395.52 66.65415177415177" height="66.65415177415177" width="395.52"><g id="SvgjsG1665"><svg viewBox="0 0 395.52 66.65415177415177" height="66.65415177415177" width="395.52" id="SvgjsSvg1664"><g><svg viewBox="0 0 395.52 66.65415177415177" height="66.65415177415177" width="395.52"><g transform="matrix(1,0,0,1,0,0)"><svg width="395.52" viewBox="2.51 -37.5 282.77 47.660000000000004" height="66.65415177415177" data-palette-color="url(#0ee593e9-61d3-49a0-8fa1-b9b5c3ec7328)"><path d="M32.54-35.55L32.54 0 23.41 0 11.67-20.56 11.67 0 2.51 0 2.51-35.55 11.67-35.55 23.41-14.99 23.41-35.55 32.54-35.55ZM50.31 0.49L50.31 0.49Q45.92 0.49 42.83-1.29 39.74-3.08 38.13-5.99 36.52-8.91 36.52-12.3L36.52-12.3 36.52-13.21Q36.52-16.99 37.94-20.1 39.35-23.22 42.21-25.06 45.07-26.9 49.39-26.9L49.39-26.9Q53.22-26.9 55.93-25.33 58.64-23.75 60.09-20.84 61.55-17.92 61.55-13.87L61.55-13.87 61.55-10.18 39.82-10.18 39.82-15.82 52.95-15.82 52.95-16.53Q52.98-17.68 52.56-18.41 52.15-19.14 51.33-19.48 50.51-19.82 49.31-19.82L49.31-19.82Q47.6-19.82 46.75-18.87 45.9-17.92 45.6-16.42 45.31-14.92 45.31-13.21L45.31-13.21 45.31-12.3Q45.31-10.55 45.97-9.27 46.63-7.98 47.89-7.3 49.14-6.62 50.9-6.62L50.9-6.62Q52.51-6.62 54.14-7.18 55.76-7.74 56.88-9.16L56.88-9.16 60.84-4.1Q59.62-2.39 56.89-0.95 54.17 0.49 50.31 0.49ZM72.7-8.4L77.46-26.42 82.93-26.42 81.1-16.14 76.41 0 72.04 0 72.7-8.4ZM71.31-26.42L74.12-8.62 74.31 0 69.01 0 62.89-26.42 71.31-26.42ZM86.88-9.06L89.74-26.42 98.14-26.42 92.06 0 86.74 0 86.88-9.06ZM83.56-26.42L88.4-8.4 89.03 0 84.61 0 80.05-16.06 78.27-26.42 83.56-26.42ZM114.45-7.54L114.45-7.54Q114.45-8.15 114.02-8.54 113.59-8.94 112.52-9.29 111.44-9.64 109.49-10.06L109.49-10.06Q106.95-10.62 104.83-11.66 102.7-12.7 101.45-14.36 100.19-16.02 100.19-18.36L100.19-18.36Q100.19-20.63 101.48-22.58 102.78-24.54 105.24-25.72 107.71-26.9 111.22-26.9L111.22-26.9Q114.84-26.9 117.47-25.81 120.11-24.71 121.54-22.75 122.97-20.8 122.97-18.19L122.97-18.19 114.18-18.19Q114.18-19.63 113.52-20.29 112.86-20.95 111.2-20.95L111.2-20.95Q110.51-20.95 109.89-20.7 109.27-20.46 108.89-20 108.51-19.53 108.51-18.82L108.51-18.82Q108.51-18.21 108.96-17.74 109.42-17.26 110.32-16.92 111.22-16.58 112.61-16.36L112.61-16.36Q115.23-15.92 117.58-15.04 119.94-14.16 121.43-12.45 122.92-10.74 122.92-7.79L122.92-7.79Q122.92-5.44 121.49-3.56 120.06-1.68 117.42-0.6 114.79 0.49 111.2 0.49L111.2 0.49Q107.34 0.49 104.7-0.9 102.07-2.29 100.71-4.41 99.36-6.52 99.36-8.64L99.36-8.64 107.56-8.64Q107.61-7.59 108.09-6.9 108.56-6.2 109.42-5.85 110.27-5.49 111.44-5.49L111.44-5.49Q112.44-5.49 113.1-5.74 113.76-5.98 114.1-6.45 114.45-6.91 114.45-7.54ZM144.94-9.57L144.94-9.57Q144.94-10.52 144.53-11.25 144.13-11.99 142.87-12.71 141.62-13.43 139.05-14.28L139.05-14.28Q136.76-15.06 134.58-16.06 132.41-17.07 130.68-18.42 128.95-19.78 127.92-21.62 126.89-23.46 126.89-25.93L126.89-25.93Q126.89-29.05 128.7-31.31 130.51-33.57 133.63-34.8 136.76-36.04 140.74-36.04L140.74-36.04Q144.67-36.04 147.68-34.7 150.7-33.37 152.42-30.88 154.14-28.39 154.14-24.93L154.14-24.93 145.01-24.93Q145.01-26.07 144.53-26.95 144.06-27.83 143.07-28.32 142.08-28.81 140.54-28.81L140.54-28.81Q139.05-28.81 138.04-28.39 137.03-27.98 136.53-27.31 136.03-26.64 136.03-25.81L136.03-25.81Q136.03-24.85 136.81-24.15 137.59-23.44 138.98-22.83 140.37-22.22 142.2-21.61L142.2-21.61Q146.01-20.39 148.66-18.76 151.31-17.14 152.7-14.9 154.09-12.67 154.09-9.62L154.09-9.62Q154.09-6.37 152.47-4.11 150.84-1.86 147.87-0.68 144.89 0.49 140.86 0.49L140.86 0.49Q138.08 0.49 135.4-0.22 132.73-0.93 130.57-2.42 128.41-3.91 127.13-6.24 125.84-8.57 125.84-11.82L125.84-11.82 135.02-11.82Q135.02-10.35 135.38-9.38 135.73-8.4 136.46-7.8 137.2-7.2 138.3-6.95 139.39-6.69 140.86-6.69L140.86-6.69Q142.37-6.69 143.26-7.1 144.16-7.52 144.55-8.18 144.94-8.84 144.94-9.57ZM166.83-21.34L166.83 10.16 158.04 10.16 158.04-26.42 166.25-26.42 166.83-21.34ZM182.82-13.55L182.82-13.04Q182.82-9.2 181.65-6.14 180.48-3.08 178.2-1.29 175.92 0.49 172.55 0.49L172.55 0.49Q169.37 0.49 167.39-1.44 165.42-3.37 164.33-6.52 163.24-9.67 162.68-13.28L162.68-13.28 162.68-12.99Q163.22-16.89 164.31-20.04 165.39-23.19 167.37-25.05 169.35-26.9 172.52-26.9L172.52-26.9Q175.89-26.9 178.19-25.23 180.48-23.56 181.65-20.56 182.82-17.55 182.82-13.55L182.82-13.55ZM174.04-13.04L174.04-13.55Q174.04-15.43 173.69-16.83 173.35-18.24 172.53-19.03 171.72-19.82 170.3-19.82L170.3-19.82Q169.08-19.82 168.26-19.47 167.44-19.12 166.96-18.37 166.47-17.63 166.28-16.43 166.1-15.23 166.15-13.55L166.15-13.55 166.15-12.72Q166.05-10.86 166.41-9.48 166.76-8.11 167.71-7.35 168.66-6.59 170.35-6.59L170.35-6.59Q171.81-6.59 172.61-7.46 173.4-8.33 173.72-9.79 174.04-11.25 174.04-13.04L174.04-13.04ZM194.76-37.5L194.76 0 185.95 0 185.95-37.5 194.76-37.5ZM193.74-14.01L191.71-13.84Q191.68-17.65 192.87-20.59 194.05-23.54 196.21-25.22 198.37-26.9 201.28-26.9L201.28-26.9Q203.89-26.9 205.91-25.87 207.92-24.83 209.05-22.49 210.19-20.14 210.19-16.21L210.19-16.21 210.19 0 201.35 0 201.35-16.26Q201.35-17.7 200.94-18.47 200.52-19.24 199.74-19.53 198.96-19.82 197.86-19.82L197.86-19.82Q196.49-19.82 195.68-19.42 194.86-19.02 194.43-18.25 194-17.48 193.87-16.41 193.74-15.33 193.74-14.01L193.74-14.01ZM227.52 0.49L227.52 0.49Q223.13 0.49 220.04-1.29 216.95-3.08 215.34-5.99 213.73-8.91 213.73-12.3L213.73-12.3 213.73-13.21Q213.73-16.99 215.14-20.1 216.56-23.22 219.42-25.06 222.27-26.9 226.59-26.9L226.59-26.9Q230.43-26.9 233.14-25.33 235.85-23.75 237.3-20.84 238.75-17.92 238.75-13.87L238.75-13.87 238.75-10.18 217.02-10.18 217.02-15.82 230.16-15.82 230.16-16.53Q230.18-17.68 229.77-18.41 229.35-19.14 228.53-19.48 227.72-19.82 226.52-19.82L226.52-19.82Q224.81-19.82 223.96-18.87 223.1-17.92 222.81-16.42 222.52-14.92 222.52-13.21L222.52-13.21 222.52-12.3Q222.52-10.55 223.18-9.27 223.84-7.98 225.09-7.3 226.35-6.62 228.11-6.62L228.11-6.62Q229.72-6.62 231.34-7.18 232.97-7.74 234.09-9.16L234.09-9.16 238.04-4.1Q236.82-2.39 234.1-0.95 231.38 0.49 227.52 0.49ZM250.71-19.36L250.71 0 241.92 0 241.92-26.42 250.13-26.42 250.71-19.36ZM258.33-26.61L258.18-18.02Q257.67-18.07 256.8-18.14 255.94-18.21 255.4-18.21L255.4-18.21Q253.54-18.21 252.38-17.74 251.23-17.26 250.71-16.26 250.2-15.26 250.22-13.62L250.22-13.62 248.69-14.94Q248.69-18.53 249.59-21.23 250.49-23.93 252.14-25.42 253.79-26.9 256.01-26.9L256.01-26.9Q256.62-26.9 257.24-26.84 257.87-26.78 258.33-26.61L258.33-26.61ZM274.05 0.49L274.05 0.49Q269.66 0.49 266.57-1.29 263.48-3.08 261.87-5.99 260.26-8.91 260.26-12.3L260.26-12.3 260.26-13.21Q260.26-16.99 261.67-20.1 263.09-23.22 265.94-25.06 268.8-26.9 273.12-26.9L273.12-26.9Q276.96-26.9 279.67-25.33 282.37-23.75 283.83-20.84 285.28-17.92 285.28-13.87L285.28-13.87 285.28-10.18 263.55-10.18 263.55-15.82 276.69-15.82 276.69-16.53Q276.71-17.68 276.3-18.41 275.88-19.14 275.06-19.48 274.25-19.82 273.05-19.82L273.05-19.82Q271.34-19.82 270.49-18.87 269.63-17.92 269.34-16.42 269.04-14.92 269.04-13.21L269.04-13.21 269.04-12.3Q269.04-10.55 269.7-9.27 270.36-7.98 271.62-7.3 272.88-6.62 274.64-6.62L274.64-6.62Q276.25-6.62 277.87-7.18 279.49-7.74 280.62-9.16L280.62-9.16 284.57-4.1Q283.35-2.39 280.63-0.95 277.91 0.49 274.05 0.49Z" opacity="1" transform="matrix(1,0,0,1,0,0)" fill="white" class="wordmark-text-0" id="SvgjsPath1663"></path></svg></g></svg></g></svg></g></svg></g><g></g></svg></g><defs><mask></mask></defs></svg><rect width="395.52" height="66.65415177415177" fill="black" stroke="none" visibility="hidden"></rect></g></mask><linearGradient x1="0.054" x2="0.941" y1="0.5" y2="0.5" id="0ee593e9-61d3-49a0-8fa1-b9b5c3ec7328"><stop stop-color="#eaa79c" offset="0"></stop><stop stop-color="#f2e8cb" offset="0.498"></stop><stop stop-color="#eaa79c" offset="1"></stop></linearGradient><rect width="395.52" height="66.65415177415177" fill="url(#0ee593e9-61d3-49a0-8fa1-b9b5c3ec7328)" mask="url(#3958b307-07f6-4f5e-82cb-4a2155dffcca)" data-fill-palette-color="primary"></rect></svg><rect width="395.52" height="66.65415177415177" fill="none" stroke="none" visibility="hidden"></rect></g></svg></g></svg>